<svg xmlns="http://www.w3.org/2000/svg" height="567" width="928"><rect width="100%" height="100%" fill="none"/><g class="currentLayer"><path fill="#dbe8ff" color="#000" d="M0 0h929v567H0z"/><path d="M513.9 84s46.5-23.3 93-23.3c69.9 0 116.4 46.5 116.4 116.3 0 46.7-46.5 93.1-46.5 93.1zm0 0" fill="#004ed6"/><path d="M555.6 88.8l23.3-23.3A16.5 16.5 0 01602 88.8L579 112a16.5 16.5 0 11-23.3-23.2zM602 112l23.3-23.2a16.5 16.5 0 0123.3 23.2l-23.3 23.3a16.5 16.5 0 11-23.3-23.3zm33 37l36.8-37a16.5 16.5 0 0123.3 23.3l-36.9 36.9a16.5 16.5 0 01-23.3-23.3zm23.2 46.5l37-37a16.5 16.5 0 1123.2 23.3l-37 37a16.5 16.5 0 01-23.2-23.3zm0 0" fill="#0026b6"/><path d="M219 85a65.4 65.4 0 0144.8-34.7c31.2-6.7 40.6-13 133.7-13 116.4 0 302.5 93.2 302.5 232.8S537.1 479.5 444 479.5c-69.8 0-116.3-23.2-116.3-23.2S311.5 507 282 536.9a41.3 41.3 0 01-47.9 8 40.9 40.9 0 01-22.5-40.9c2.4-22 32.9-57.6 46.3-71 0 0-41.1-22.9-46.3-69.8a41.1 41.1 0 0122.1-41.5 40.4 40.4 0 0144.6 5.4c20.5 17.7 49.4 53.3 49.4 82.6 0 0 209.4 0 209.4-93 0 0-46.5-46.6-116.3-46.6-44 0-173.7-2.3-207-140.3a65.9 65.9 0 015.2-44.7zm0 0" fill="#99cefa"/><path d="M454.3 125.7a11.6 11.6 0 00-11.5 13.7 83.3 83.3 0 011.2 14.3 45 45 0 01-13.8 33.1 69.1 69.1 0 01-13.7 10.7 11.6 11.6 0 0012 20l1.3-.9h.1l.1-.1h.1v-.1h.2v-.1h.1l.1-.1h.1v-.1a94.3 94.3 0 0012.3-9.2l.2-.2.2-.2h.1v-.1h.1v-.1h.1v-.1h.1v-.1h.1v-.1h.1v-.1h.1l.1-.1a90 90 0 002.7-2.7 15.2 15.2 0 00.9-.9 70.6 70.6 0 0015.7-25l.2-.6v-.3l.2-.3v-.3l.2-.3v-.3l.2-.3v-.3a1 1 0 01.1-.1v-.2l.1-.1v-.1-.1l.1-.1V173.5l.1-.2v-.2h.1v-.2l.1-.2V172.3h.1v-.2a.7.7 0 000-.1l.1-.1v-.1a1 1 0 010-.1v-.1a1 1 0 00.1-.1 1 1 0 000-.1.7.7 0 000-.2h.1v-.4h.1V170.5a.8.8 0 000-.1l.1-.1v-.1-.2l.1-.2v-.2l.1-.2V169.2l.1-.1a.8.8 0 010-.1v-.2l.1-.2v-.2-.2l.1-.1V167.8l.1-.2v-.4l.1-.1v-.1V166.7l.1-.2v-.1-.1a.7.7 0 000-.1v-.1l.1-.1a.7.7 0 000-.2V165.4l.1-.1v-.5l.1-.2v-.5l.1-.2V163.4h.1v-.5V162.5l.1-.1V162.2a.8.8 0 000-.2V161.6h.1V161.4v-.2-.2V160.7h.1v-.4-.4-.2-.1a1 1 0 00.1-.2v-.1-.1-.1-.2-.2-.1-.5h.1v-.1-.2V157.4 157.2 156.8v-.5-.1-.2-.1-.1V155.6h.1v-.6-2.4V151.1v-.4-.3a105.3 105.3 0 00-1.5-15.2 11.7 11.7 0 00-11.5-9.6zm-45.2 353.8a11.6 11.6 0 010-23.2c.7 0 67.4-.8 133.2-44.6C606.2 369 607 305.7 607 305a11.6 11.6 0 1123.3 0c0 3.1-.8 76.6-75 126a287 287 0 01-146 48.5zm0 0" fill="#c9e5fc"/><path d="M427.8 223.7a23.3 23.3 0 00-.8 46.5h.5a38.6 38.6 0 01.8 0l.6.1h.6c45.3 2.6 79.8 24.1 96.5 37a23.3 23.3 0 0028.3-37 225.7 225.7 0 00-123.8-46.5h-1.7a23 23 0 00-1-.1zm0 0" fill="#64aef7"/><path d="M700 270.1C700 130.5 514 37.4 397.5 37.4c-93 0-102.5 6.2-133.7 13a65.3 65.3 0 00-23.4 10.4c31.3.8 194.3 9.1 320 93C700 246.7 700 435 444 479.4c93.1 0 256-69.8 256-209.4zm0 0" fill="#0a86e3"/><path d="M588.6 73.5c-6.4 0-11.6 5.2-11.6 11.6a11.6 11.6 0 005.4 9.9 337.7 337.7 0 0143 31.5l.2.1.2.2.2.1.5.5.1.1.2.2.2.1.2.2.1.1.2.2.2.1.1.2.2.1.2.2.2.1.1.2.2.1.2.2.1.1.2.2.2.1.1.2.2.1.2.2.1.1.2.2.2.1.1.2.2.1.2.2.1.1.2.2.2.2.2.1.1.2.2.1.1.2.2.1.2.2.2.1.1.2.2.1.1.2h.1l.1.1v.1l.2.1.1.2h.1l.1.1.2.2.1.1h.1l.1.2.2.1.1.2h.1l.1.1v.1h.2v.1l.1.1v.1l.2.1a2 2 0 01.1.2h.1l.1.1.2.2.1.1.1.1h.1v.2h.2v.1l.1.1h.1l.1.2.2.1.1.2h.1v.1l.2.1.1.2h.1v.1l.2.1.1.2h.1v.1l.2.2h.2v.1l.1.1.2.2.1.1.1.1.2.2.1.1.1.1.2.2.1.1.2.2.2.1v.1l.1.1.2.2.1.1.2.2.2.2.1.1.2.2.1.1.2.2.1.1.4.4.1.1.2.2.1.1.2.2.2.2.1.1.2.2.1.2.2.1.3.4.2.1.1.2.2.1a3.6 3.6 0 00.1.2l.4.3.1.2.2.1.1.2.2.2.6.6.1.2.5.5.3.3.2.2.1.1 1.5 1.7.2.1.5.6.3.3v.1l.8.9 1 1.1.7.7.1.2.2.1.7.9.1.1.4.4v.1h.1l.1.2.2.2.1.1.5.6.1.1.1.2.2.1.3.4.1.2.1.1.2.2.1.2.2.1.1.2.2.2.1.1.1.2.2.2.1.2a3.2 3.2 0 01.2.1l.1.2.1.2.2.1.1.2.1.2.2.1v.1l.1.1.2.2.1.2.1.1.1.1a.7.7 0 01.2.2v.1l.2.2.1.1.1.2.2.2.1.1v.1l.2.1.1.2.1.2.2.1.1.2.1.2h.1v.1l.1.1.1.1.2.2v.2h.1l.1.1v.1h.2v.2l.2.2v.1l.2.1v.1h.1v.2h.1a1 1 0 00.1.2l.1.1a2.1 2.1 0 00.2.2l.1.2a1 1 0 00.1.2h.1v.1l.1.1.1.1.2.2v.2h.1l.2.3h.1v.2h.1l.1.2.1.1.2.2.1.2.1.2.2.1v.1l.1.1.1.2.2.2v.1l.1.1.1.1.2.2v.2l.2.2.1.1.2.2.1.2.1.2.2.1.1.2.1.2.2.2v.2h.1l.1.1.1.2.2.2v.2h.1l.1.2.2.1v.2h.1l.1.2.1.2.2.1v.2h.1l.1.2.1.2.2.2v.1h.1l.1.2.4.5.3.6.1.1.1.2a187.6 187.6 0 0121.4 40.8 11.6 11.6 0 0021.8-8 211 211 0 00-24.2-46.3 15.4 15.4 0 00-.4-.6l-.4-.6a313.3 313.3 0 00-92.2-84.4 11.6 11.6 0 00-6-1.7zm0 0" fill="#0026b6"/><path d="M467.3 84a23.3 23.3 0 11-46.5 0 23.3 23.3 0 0146.5 0zm69.8 46.5a23.3 23.3 0 11-46.5 0 23.3 23.3 0 0146.5 0zm0 0" fill="#0a86e3"/><path d="M351 84a23.3 23.3 0 11-46.6 0 23.3 23.3 0 0146.6 0zm0 0" fill="#001386"/><path d="M327.7 72.3a11.6 11.6 0 11-23.3 0 11.6 11.6 0 0123.3 0zm0 0" fill="#46a4f2"/><path d="M269.5 153.7c-6.4 0-11.6-5.2-11.6-11.6v-9.5a11.4 11.4 0 00-5.5-9.8c-40-23.8-41-47.8-41-50.5a11.6 11.6 0 0123.2-.5c.1 1 2.6 14.8 29.7 31a34.8 34.8 0 0116.8 29.8v9.5c0 6.4-5.2 11.6-11.6 11.7zm0 0" fill="#64aef7"/><path d="M281.1 142.1a11.6 11.6 0 11-23.2 0 11.6 11.6 0 0123.2 0zm0 0" fill="#006ce2"/><path d="M233.3 112.3c-6.5 0-11.7 5.2-11.7 11.7a11.6 11.6 0 004.7 9.3 156.7 156.7 0 008.3 5.8v3a35 35 0 0029.8 34.5 34.4 34.4 0 004.2.4 11.6 11.6 0 00.5-23.3 12.2 12.2 0 01-2-.2 10.3 10.3 0 00-.6-.1 11.7 11.7 0 01-8.1-8 1.8 1.8 0 000-.1h-.1v-.2a1 1 0 000-.2h-.1a1.8 1.8 0 010-.2v-.2l-.1-.1v-.5h-.1V143h-.1v-10.4a11.4 11.4 0 00-5.5-9.8l-.1-.1h-.1l-.1-.1h-.1v-.1h-.1-.1v-.1h-.1a.4.4 0 01-.1-.1l-.1-.1h-.1l-.5-.3-.2-.1v-.1h-.2v-.1a156.5 156.5 0 01-4.4-2.8h-.1v-.1h-.1l-.7-.5h-.1v-.1h-.1l-.1-.1h-.1v-.1h-.2v-.1l-.2-.2h-.1l-.2-.1v-.1h-.1l-.1-.1h-.1v-.1h-.1a.9.9 0 00-.1-.1l-.3-.2-.1-.1h-.1l-.1-.1-.1-.1h-.1a140.4 140.4 0 01-2.6-2 11.5 11.5 0 00-7-2.3zm0 0" fill="#c9e5fc"/><path d="M420.8 270.1a23.3 23.3 0 01-23.3-23.3 23.3 23.3 0 0116-22c2-.8 53.8-19.3 53.8-71 0-35.4-16-53-16.7-53.7a23.5 23.5 0 01.7-32.8c9-8.8 23.5-8.7 32.5.2 3 3 30 31.6 30 86.2 0 85.7-82.2 114-85.7 115.2a23.3 23.3 0 01-7.3 1.2zm0 0" fill="#64aef7"/><path d="M420.8 270.1a23.3 23.3 0 01-23.3-23.3 23.3 23.3 0 0116-22c2-.8 53.8-19.3 53.8-71 0-35.4-16-53-16.7-53.7a23.5 23.5 0 01.7-32.8c9-8.8 23.5-8.7 32.5.2 3 3 30 31.6 30 86.2 0 85.7-82.2 114-85.7 115.2a23.3 23.3 0 01-7.3 1.2zm0 0" fill="#64aef7"/><path d="M488.5 153.7c-11.2 0-20.8-8-22.9-19a71.5 71.5 0 00-15-34.6 23.5 23.5 0 01.7-32.8c9-8.8 23.5-8.7 32.5.2a115 115 0 0127.6 58.8c2.3 12.6-6 24.7-18.7 27a22 22 0 01-4.2.4zm0 0" fill="#006ce2"/><path d="M630.2 200.3a23.3 23.3 0 11-46.5 0 23.3 23.3 0 0146.5 0zm0 0" fill="#0a86e3"/><path d="M560.4 363.2a23.3 23.3 0 11-46.5 0 23.3 23.3 0 0146.5 0zm0 0" fill="#64aef7"/><path d="M444 444.6a11.6 11.6 0 11-23.2 0 11.6 11.6 0 0123.2 0zm46.6-46.5a11.6 11.6 0 11-23.3 0 11.6 11.6 0 0123.3 0zm0 0" fill="#c9e5fc"/><path d="M583.7 223.6a23.3 23.3 0 11-46.6 0 23.3 23.3 0 0146.6 0zm0 0" fill="#e1ebfc"/><path d="M374.2 142.1a11.6 11.6 0 11-23.2 0 11.6 11.6 0 0123.2 0zm0 0" fill="#64aef7"/><path d="M676.8 305a11.6 11.6 0 11-23.3 0 11.6 11.6 0 0123.3 0zm-46.6 93.1a11.6 11.6 0 11-23.3 0 11.6 11.6 0 0123.3 0zm46.6-46.5a11.6 11.6 0 11-23.3 0 11.6 11.6 0 0123.3 0zm0 0" fill="#006ce2"/><path d="M560.4 421.4a11.6 11.6 0 11-23.3 0 11.6 11.6 0 0123.3 0zM351 444.6a11.6 11.6 0 11-23.3 0 11.6 11.6 0 0123.3 0zm0 0" fill="#64aef7"/><path d="M630.2 188.7a11.6 11.6 0 11-23.2 0 11.6 11.6 0 0123.2 0zm0 0" fill="#006ce2"/><path d="M327.7 409.8c0-29.3-29-65-49.4-82.6a40.4 40.4 0 00-44.6-5.4 41.1 41.1 0 00-22.1 41.5c5.2 47 46.3 69.8 46.3 69.8-13.4 13.4-44 49-46.3 71a41.2 41.2 0 0036.9 45 41.2 41.2 0 0033.5-12c29.5-30 45.7-80.7 45.7-80.7-23.3 0-23.3-23.3-23.3-23.3s0-23.3 23.3-23.3zm0 0" fill="#0a86e3"/><path d="M252 317.5h-1.8c-6.2.4-11 5.6-10.7 11.8.2 6.4 5.4 11.4 11.8 11.4h.7a16.9 16.9 0 0111 4.1c13.1 11.3 29.7 30.7 37.4 48.8a11.6 11.6 0 0021.4-9 109.8 109.8 0 00-3.6-7.7 65.9 65.9 0 01-.3-.5l-.1-.3-.1-.3h-.1v-.2h-.1v-.1l-.1-.2-.1-.2-.1-.1v-.2h-.1v-.1l-.1-.1-.1-.2a.7.7 0 01-.1-.1v-.1l-.1-.2-.1-.1v-.1l-.1-.1-.1-.2-.1-.2-.1-.1v-.1l-.1-.2a1.4 1.4 0 00-.1 0v-.2h-.1v-.1a1 1 0 00-.1-.2h-.1v-.1a2.1 2.1 0 000-.1l-.1-.2h-.1v-.1a1.8 1.8 0 00-.1-.1v-.1l-.2-.2v-.1l-.2-.3-.1-.2-.2-.3-.2-.4a5.4 5.4 0 01-.2-.2 187.4 187.4 0 00-35-41.9l-.2-.2-.1-.1h-.1l-.1-.2h-.1v-.1h-.1l-.2-.2a40.1 40.1 0 00-26.4-9.8zm0 0" fill="#46a4f2"/><path d="M607 130.5a23.3 23.3 0 11-46.6 0 23.3 23.3 0 0146.5 0zm0 0" fill="#006ce2"/><path d="M362.6 223.6c-2 0-51.7-.3-78-26.7a11.6 11.6 0 0116.4-16.5c19.5 19.6 61.2 19.9 61.6 19.9a11.6 11.6 0 010 23.3zm0 0" fill="#e1ebfc"/><path d="M294.2 431.2a11.6 11.6 0 00-11.2 14.7 45.7 45.7 0 0014.7 23.4 191.6 191.6 0 01-29 48 94.3 94.3 0 01-3.3 3.4 18 18 0 01-16.3 5 11.6 11.6 0 00-4.4 23l1.9.2h.4v.1H247.8l.2.1h.9v.1H250.2v.1H252.6c11 0 21.7-4.4 29.5-12.3l.1-.1.1-.1.1-.1 1-1v-.1h.1v-.1h.1v-.1l.1-.1a105.1 105.1 0 003.3-3.6 176.2 176.2 0 0019.6-28c0-.3.2-.5.4-.8v-.1l.1-.1.2-.3v-.2h.1v-.1l.1-.1.2-.5h.1v-.1l.1-.1v-.2l.2-.2v-.1h.1v-.2l.2-.2v-.2h.1v-.2h.1l.2-.4v-.1l.2-.2v-.1l.3-.4V498.4h.1v-.1l.1-.1.2-.4a276.4 276.4 0 0018.1-41.5c-14.6 0-20-9.2-22-16l-.1-.1V440h-.1v-.2a11.7 11.7 0 00-11.3-8.6zm0 0" fill="#004ed6"/><path d="M292.8 386.5H316a11.6 11.6 0 010 23.2h-23.3a11.6 11.6 0 010-23.2zm0 0" fill="#46a4f2"/><path d="M269.5 433h23.3a11.6 11.6 0 010 23.3h-23.3a11.6 11.6 0 110-23.3zm-23.3 46.5h46.6a11.6 11.6 0 010 23.3h-46.6a11.6 11.6 0 110-23.3zm0 0" fill="#004ed6"/><path d="M223 340h46.5a11.6 11.6 0 010 23.2H223a11.6 11.6 0 010-23.3zm34.9 34.8a11.6 11.6 0 11-23.3 0 11.6 11.6 0 0123.3 0zm0 0" fill="#46a4f2"/><path d="M257.9 468a11.6 11.6 0 11-23.3 0 11.6 11.6 0 0123.3 0zm0 0" fill="#004ed6"/></g></svg>