<svg xmlns="http://www.w3.org/2000/svg" xmlns:xlink="http://www.w3.org/1999/xlink" version="1.1" style="" xml:space="preserve" width="764.1818237304688" height="466.7272644042969"><rect id="backgroundrect" width="100%" height="100%" x="0" y="0" fill="none" stroke="none" class="" style=""/>























<g class="currentLayer" style=""><title>Layer 1</title><rect fill="#91dcff" stroke-dashoffset="" fill-rule="nonzero" id="svg_26" x="-0.8080735206604004" y="-0.262628344543785" width="765.0302443236521" height="467.1212340038264" style="color: rgb(0, 0, 0);" class="" stroke="none" fill-opacity="1"/><path style="fill:#20D0C2;" d="M258.2651788921356,40.32000166893005 h255.168 l57.901,263.754 l-21.206,0.11400000000000034 l-0.508,93.121 l21.856,0.11400000000000034 l-0.14300000000000004,15.561 H226.40217889213562 c-32.646,-2.614 -29.734,-62.494 -31.48,-78.522 l29.062,-268.12 C224.09617889213564,54.427001668930075 236.11017889213565,40.32000166893005 258.2651788921356,40.32000166893005 L258.2651788921356,40.32000166893005 z" id="svg_2" class=""/><path style="fill:#20D0C2;" d="M258.2651788921356,40.32000166893005 h255.168 l57.901,263.754 l-21.206,0.11400000000000036 l-0.508,93.121 l21.856,0.11400000000000036 l-0.14300000000000004,15.561 H226.40217889213562 c-32.646,-2.614 -29.734,-62.494 -31.48,-78.522 l29.062,-268.12 C224.09617889213564,54.427001668930075 236.11017889213565,40.32000166893005 258.2651788921356,40.32000166893005 L258.2651788921356,40.32000166893005 z" class="" id="svg_27"/><path style="fill:#FF5B61;" d="M258.2651788921356,40.32000166893005 h24.438 l-22.243,372.664 l-38.143,-1.097 c-31.896,-1.2530000000000001 -36.66,-77.503 -26.013,-105.148 l27.681,-240.398 C224.09717889213562,54.427001668930075 236.1121788921356,40.32000166893005 258.2651788921356,40.32000166893005 L258.2651788921356,40.32000166893005 z" id="svg_3" class=""/><path style="fill:#FFFFFF;" d="M230.84417889213563,304.04500166893007 h333.877 c-15.15,31.942 -14.757,63.443 0,94.526 H230.84417889213563 C195.02917889213563,398.57200166893006 195.03417889213563,304.04500166893007 230.84417889213563,304.04500166893007 z" id="svg_4" class=""/><path style="fill:#ECF0F1;" d="M206.56717889213562,330.03100166893006 h349.218 c-0.20400000000000001,0.9460000000000006 -0.3920000000000014,1.8930000000000002 -0.5680000000000006,2.837 H205.89617889213562 C206.10517889213563,331.91100166893006 206.32517889213563,330.96200166893004 206.56717889213562,330.03100166893006 L206.56717889213562,330.03100166893006 zM554.1511788921357,339.9750016689301 L554.1511788921357,339.9750016689301 c-0.11000000000000022,0.9460000000000006 -0.20400000000000001,1.8920000000000003 -0.2840000000000003,2.837 H204.37317889213563 c0.08600000000000041,-0.9510000000000006 0.19400000000000076,-1.8980000000000001 0.3140000000000012,-2.837 H554.1511788921357 zM553.5171788921357,349.91900166893004 L553.5171788921357,349.91900166893004 c-0.014000000000000045,0.9460000000000006 -0.014000000000000045,1.891 0,2.837 H204.00217889213562 c-0.014000000000000045,-0.9460000000000006 -0.014000000000000045,-1.891 0,-2.837 H553.5171788921357 zM553.8721788921356,359.86100166893004 L553.8721788921356,359.86100166893004 c0.08300000000000034,0.9490000000000006 0.1760000000000002,1.8930000000000002 0.2840000000000003,2.838 H204.69217889213562 c-0.11900000000000044,-0.9410000000000006 -0.22400000000000075,-1.8880000000000003 -0.3110000000000012,-2.838 H553.8721788921356 zM555.2231788921356,369.80500166893006 L555.2231788921356,369.80500166893006 c0.17400000000000004,0.9440000000000006 0.3640000000000003,1.891 0.5680000000000006,2.837 H206.58117889213563 c-0.2460000000000004,-0.934 -0.466,-1.8800000000000003 -0.6740000000000032,-2.837 H555.2231788921356 zM557.5661788921357,379.74600166893003 L557.5661788921357,379.74600166893003 c0.269,0.9460000000000006 0.553,1.8930000000000002 0.8510000000000006,2.837 H210.1121788921356 c-0.4280000000000003,-0.916 -0.8380000000000006,-1.8650000000000002 -1.22,-2.837 H557.5661788921357 L557.5661788921357,379.74600166893003 zM560.9011788921357,389.69000166893005 L560.9011788921357,389.69000166893005 c0.3660000000000003,0.9460000000000006 0.7450000000000024,1.8930000000000002 1.1360000000000001,2.837 H216.84217889213562 c-0.8720000000000024,-0.8660000000000024 -1.6990000000000007,-1.816 -2.484,-2.837 H560.9011788921357 z" id="svg_5" class=""/><path style="fill:#FF5B61;" d="M245.8771788921356,352.95900166893006 h52.174 V452.00000166893005 l-26.304,-32.31 L245.8771788921356,452.00000166893005 L245.8771788921356,352.95900166893006 L245.8771788921356,352.95900166893006 z" id="svg_6" class=""/><path style="fill:#DFE1E3;" d="M265.77917889213563,323.86400166893003 H534.6881788921356 h15.333 h7.269 c1.8090000000000002,-6.567 4.271,-13.148 7.401,-19.753 c0.008000000000000044,-0.021000000000000095 0.020000000000000084,-0.04400000000000021 0.03200000000000011,-0.06500000000000022 H540.8581788921356 H266.9631788921356 h-36.121 c-33.139,0 -35.615,80.947 -7.417,93.027 c-9.549,-27.879 -1.921,-73.209 22.878,-73.209 L265.77917889213563,323.86400166893003 L265.77917889213563,323.86400166893003 z" id="svg_7" class=""/><g id="svg_8" class="">
	<path style="fill:#ECF0F1;" d="M362.0511788921356,254.79400166893004 h100.579 v-7.213 H362.0511788921356 V254.79400166893004 z" id="svg_9"/>
	<path style="fill:#ECF0F1;" d="M370.1471788921356,268.43500166893006 h84.389 v-5.401 h-84.389 V268.43500166893006 z" id="svg_10"/>
</g><g id="svg_11" class="">
</g><g id="svg_12" class="">
</g><g id="svg_13" class="">
</g><g id="svg_14" class="">
</g><g id="svg_15" class="">
</g><g id="svg_16" class="">
</g><g id="svg_17" class="">
</g><g id="svg_18" class="">
</g><g id="svg_19" class="">
</g><g id="svg_20" class="">
</g><g id="svg_21" class="">
</g><g id="svg_22" class="">
</g><g id="svg_23" class="">
</g><g id="svg_24" class="">
</g><g id="svg_25" class="">
</g></g></svg>